<svg xmlns="http://www.w3.org/2000/svg" width="233" height="135" viewBox="0 0 233 135"><defs><style>.cls-1{fill:#8ca767;}.cls-2{fill:#fff;}.cls-3{fill:none;stroke:#fff;stroke-miterlimit:10;stroke-width:0.28px;}</style></defs><title>Asset 3</title><g id="Layer_2" data-name="Layer 2"><g id="Layer_1-2" data-name="Layer 1"><path class="cls-1" d="M140,31.1,87.7,1.6a12,12,0,0,0-11.6-.2L6.5,38.2A12.1,12.1,0,0,0,.6,52.6L17,105.2a12.3,12.3,0,0,0,9,8.2l92.9,21.2a12.2,12.2,0,0,0,14.8-10L146,43.5a12,12,0,0,0-6-12.4"/><path class="cls-2" d="M93.1,26.4A23.4,23.4,0,0,0,78.4,28c-7.2,3.5-10.9,10.3-11.8,19.5-1,11,1.7,21.1,5.7,30.7,4.9,11.9,11.9,21.4,21.8,27.1,6.1,3.5,12.5,5.1,19,2.3,8.1-3.6,12.2-11.3,14.1-21.3a38.2,38.2,0,0,0,.8-9.4c.3-24.2-15.2-46.9-34.9-50.5"/><path class="cls-1" d="M169.4,129.7a5.1,5.1,0,0,1-.8,2.8,4.9,4.9,0,0,1-2.4,1.8,10.4,10.4,0,0,1-3.8.6,8.2,8.2,0,0,1-3.7-.7,5,5,0,0,1-2.3-1.6,3.2,3.2,0,0,1-.7-2,1.5,1.5,0,0,1,.4-1.1,2.1,2.1,0,0,1,1.2-.5,1.3,1.3,0,0,1,1,.3l.6.9a5.8,5.8,0,0,0,1.5,1.6,5.4,5.4,0,0,0,2.4.5,3.6,3.6,0,0,0,1.9-.5,1.7,1.7,0,0,0,.8-1.3,1.6,1.6,0,0,0-.8-1.5,10.7,10.7,0,0,0-2.6-.9,27.4,27.4,0,0,1-3.4-1.1,5.7,5.7,0,0,1-2.1-1.5,3.2,3.2,0,0,1-.7-2.2,3.9,3.9,0,0,1,.7-2.3,5.1,5.1,0,0,1,2.1-1.7,8.2,8.2,0,0,1,3.4-.7,8.6,8.6,0,0,1,2.8.4,7.6,7.6,0,0,1,2,.8,5.1,5.1,0,0,1,1.3,1.2,2.4,2.4,0,0,1,.4,1.3,1.2,1.2,0,0,1-.4,1.1,2.2,2.2,0,0,1-1.4.5,1.3,1.3,0,0,1-1-.4,9.3,9.3,0,0,1-1-1,5.2,5.2,0,0,0-1.1-1,3.5,3.5,0,0,0-1.6-.3,3,3,0,0,0-1.8.4c-.5.4-.8.7-.8,1.2a1.1,1.1,0,0,0,.6,1,3.7,3.7,0,0,0,1.4.7l2.5.6a14.6,14.6,0,0,1,3,1.1,4.5,4.5,0,0,1,1.8,1.5,3.4,3.4,0,0,1,.6,2"/><path class="cls-3" d="M169.4,129.7a5.1,5.1,0,0,1-.8,2.8,4.9,4.9,0,0,1-2.4,1.8,10.4,10.4,0,0,1-3.8.6,8.2,8.2,0,0,1-3.7-.7,5,5,0,0,1-2.3-1.6,3.2,3.2,0,0,1-.7-2,1.5,1.5,0,0,1,.4-1.1,2.1,2.1,0,0,1,1.2-.5,1.3,1.3,0,0,1,1,.3l.6.9a5.8,5.8,0,0,0,1.5,1.6,5.4,5.4,0,0,0,2.4.5,3.6,3.6,0,0,0,1.9-.5,1.7,1.7,0,0,0,.8-1.3,1.6,1.6,0,0,0-.8-1.5,10.7,10.7,0,0,0-2.6-.9,27.4,27.4,0,0,1-3.4-1.1,5.7,5.7,0,0,1-2.1-1.5,3.2,3.2,0,0,1-.7-2.2,3.9,3.9,0,0,1,.7-2.3,5.1,5.1,0,0,1,2.1-1.7,8.2,8.2,0,0,1,3.4-.7,8.6,8.6,0,0,1,2.8.4,7.6,7.6,0,0,1,2,.8,5.1,5.1,0,0,1,1.3,1.2,2.4,2.4,0,0,1,.4,1.3,1.2,1.2,0,0,1-.4,1.1,2.2,2.2,0,0,1-1.4.5,1.3,1.3,0,0,1-1-.4,9.3,9.3,0,0,1-1-1,5.2,5.2,0,0,0-1.1-1,3.5,3.5,0,0,0-1.6-.3,3,3,0,0,0-1.8.4c-.5.4-.8.7-.8,1.2a1.1,1.1,0,0,0,.6,1,3.7,3.7,0,0,0,1.4.7l2.5.6a14.6,14.6,0,0,1,3,1.1,4.5,4.5,0,0,1,1.8,1.5A3.4,3.4,0,0,1,169.4,129.7Z"/><path class="cls-1" d="M188,126.8a8.8,8.8,0,0,1-.5,3.3,8.7,8.7,0,0,1-1.6,2.6,8.2,8.2,0,0,1-2.5,1.6,8.8,8.8,0,0,1-3.3.6,8.4,8.4,0,0,1-3.3-.6,6.2,6.2,0,0,1-2.5-1.7,6.7,6.7,0,0,1-1.6-2.5,8.8,8.8,0,0,1-.6-3.3,9.7,9.7,0,0,1,.6-3.4,6,6,0,0,1,1.6-2.5,7.4,7.4,0,0,1,2.5-1.7,9.4,9.4,0,0,1,6.6,0,8.5,8.5,0,0,1,2.5,1.7,7.6,7.6,0,0,1,1.6,2.6,8.8,8.8,0,0,1,.5,3.3m-4,0a5.9,5.9,0,0,0-1-3.8,3.7,3.7,0,0,0-6.4,1,7.8,7.8,0,0,0-.5,2.8,7.6,7.6,0,0,0,.5,2.7,3.6,3.6,0,0,0,3.5,2.4,3.6,3.6,0,0,0,2.9-1.3,6.3,6.3,0,0,0,1-3.8"/><path class="cls-3" d="M188,126.8a8.8,8.8,0,0,1-.5,3.3,8.7,8.7,0,0,1-1.6,2.6,8.2,8.2,0,0,1-2.5,1.6,8.8,8.8,0,0,1-3.3.6,8.4,8.4,0,0,1-3.3-.6,6.2,6.2,0,0,1-2.5-1.7,6.7,6.7,0,0,1-1.6-2.5,8.8,8.8,0,0,1-.6-3.3,9.7,9.7,0,0,1,.6-3.4,6,6,0,0,1,1.6-2.5,7.4,7.4,0,0,1,2.5-1.7,9.4,9.4,0,0,1,6.6,0,8.5,8.5,0,0,1,2.5,1.7,7.6,7.6,0,0,1,1.6,2.6A8.8,8.8,0,0,1,188,126.8Zm-4,0a5.9,5.9,0,0,0-1-3.8,3.7,3.7,0,0,0-6.4,1,7.8,7.8,0,0,0-.5,2.8,7.6,7.6,0,0,0,.5,2.7,3.6,3.6,0,0,0,3.5,2.4,3.6,3.6,0,0,0,2.9-1.3A6.3,6.3,0,0,0,184,126.8Z"/><path class="cls-1" d="M204.8,127.1v5.3a2.9,2.9,0,0,1-.6,1.9,2.2,2.2,0,0,1-3,0,3.6,3.6,0,0,1-.5-1.9V126c0-1-.1-1.8-.1-2.3a3,3,0,0,0-.6-1.4,1.6,1.6,0,0,0-1.4-.5,2.5,2.5,0,0,0-2.6,1.3,9.9,9.9,0,0,0-.6,3.9v5.4a2.9,2.9,0,0,1-.6,1.9,2.2,2.2,0,0,1-3,0,3.6,3.6,0,0,1-.5-1.9V120.9a2.3,2.3,0,0,1,.5-1.7,1.6,1.6,0,0,1,1.3-.6,1.7,1.7,0,0,1,1.4.6,2,2,0,0,1,.6,1.5v.4a6,6,0,0,1,2.2-1.8,5.8,5.8,0,0,1,2.6-.6,5.3,5.3,0,0,1,2.6.6,5.2,5.2,0,0,1,1.8,1.8,7.3,7.3,0,0,1,2.2-1.8,5.4,5.4,0,0,1,2.5-.6,6.5,6.5,0,0,1,2.9.6,3.5,3.5,0,0,1,1.7,1.9,7.1,7.1,0,0,1,.6,3.4v7.8a2.9,2.9,0,0,1-.6,1.9,2.2,2.2,0,0,1-3,0,2.9,2.9,0,0,1-.6-1.9v-6.7a12.2,12.2,0,0,0-.1-2.1,2.6,2.6,0,0,0-.6-1.3,1.7,1.7,0,0,0-1.5-.5,2.8,2.8,0,0,0-1.5.4,4.7,4.7,0,0,0-1.1,1.3,10.4,10.4,0,0,0-.4,3.6"/><path class="cls-3" d="M204.8,127.1v5.3a2.9,2.9,0,0,1-.6,1.9,2.2,2.2,0,0,1-3,0,3.6,3.6,0,0,1-.5-1.9V126c0-1-.1-1.8-.1-2.3a3,3,0,0,0-.6-1.4,1.6,1.6,0,0,0-1.4-.5,2.5,2.5,0,0,0-2.6,1.3,9.9,9.9,0,0,0-.6,3.9v5.4a2.9,2.9,0,0,1-.6,1.9,2.2,2.2,0,0,1-3,0,3.6,3.6,0,0,1-.5-1.9V120.9a2.3,2.3,0,0,1,.5-1.7,1.6,1.6,0,0,1,1.3-.6,1.7,1.7,0,0,1,1.4.6,2,2,0,0,1,.6,1.5v.4a6,6,0,0,1,2.2-1.8,5.8,5.8,0,0,1,2.6-.6,5.3,5.3,0,0,1,2.6.6,5.2,5.2,0,0,1,1.8,1.8,7.3,7.3,0,0,1,2.2-1.8,5.4,5.4,0,0,1,2.5-.6,6.5,6.5,0,0,1,2.9.6,3.5,3.5,0,0,1,1.7,1.9,7.1,7.1,0,0,1,.6,3.4v7.8a2.9,2.9,0,0,1-.6,1.9,2.2,2.2,0,0,1-3,0,2.9,2.9,0,0,1-.6-1.9v-6.7a12.2,12.2,0,0,0-.1-2.1,2.6,2.6,0,0,0-.6-1.3,1.7,1.7,0,0,0-1.5-.5,2.8,2.8,0,0,0-1.5.4,4.7,4.7,0,0,0-1.1,1.3A10.4,10.4,0,0,0,204.8,127.1Z"/><path class="cls-1" d="M228.4,132.6a8.4,8.4,0,0,1-2.8,1.7,7.3,7.3,0,0,1-3,.6,6,6,0,0,1-2.7-.6,4.2,4.2,0,0,1-1.8-1.7,4.4,4.4,0,0,1,.4-5,5.5,5.5,0,0,1,2.9-1.6l1.9-.4,2.5-.5,2.4-.6a4.6,4.6,0,0,0-.7-2.4c-.3-.5-1.1-.7-2.3-.7a4.7,4.7,0,0,0-2.3.4,4,4,0,0,0-1.3,1.3l-.8,1.1c-.1.2-.5.3-1,.3a2.1,2.1,0,0,1-1.1-.4,1.7,1.7,0,0,1-.5-1.2,3.2,3.2,0,0,1,.7-2,4.8,4.8,0,0,1,2.4-1.6,8.8,8.8,0,0,1,3.9-.7,12.1,12.1,0,0,1,4.2.6,3.8,3.8,0,0,1,2.1,2,9,9,0,0,1,.6,3.6v4.5a6.7,6.7,0,0,0,.4,2.4,8,8,0,0,1,.3,1.6,1.4,1.4,0,0,1-.6,1.1,1.9,1.9,0,0,1-1.3.5,1.7,1.7,0,0,1-1.2-.6,9.2,9.2,0,0,1-1.3-1.7m-.2-5.7-2.6.6-2.3.6-1.2.6a1.9,1.9,0,0,0,.1,2.9,2.1,2.1,0,0,0,1.8.7,5.4,5.4,0,0,0,2.2-.5,3.8,3.8,0,0,0,1.4-1.4,5.6,5.6,0,0,0,.6-3Z"/><path class="cls-3" d="M228.4,132.6a8.4,8.4,0,0,1-2.8,1.7,7.3,7.3,0,0,1-3,.6,6,6,0,0,1-2.7-.6,4.2,4.2,0,0,1-1.8-1.7,4.4,4.4,0,0,1,.4-5,5.5,5.5,0,0,1,2.9-1.6l1.9-.4,2.5-.5,2.4-.6a4.6,4.6,0,0,0-.7-2.4c-.3-.5-1.1-.7-2.3-.7a4.7,4.7,0,0,0-2.3.4,4,4,0,0,0-1.3,1.3l-.8,1.1c-.1.2-.5.3-1,.3a2.1,2.1,0,0,1-1.1-.4,1.7,1.7,0,0,1-.5-1.2,3.2,3.2,0,0,1,.7-2,4.8,4.8,0,0,1,2.4-1.6,8.8,8.8,0,0,1,3.9-.7,12.1,12.1,0,0,1,4.2.6,3.8,3.8,0,0,1,2.1,2,9,9,0,0,1,.6,3.6v4.5a6.7,6.7,0,0,0,.4,2.4,8,8,0,0,1,.3,1.6,1.4,1.4,0,0,1-.6,1.1,1.9,1.9,0,0,1-1.3.5,1.7,1.7,0,0,1-1.2-.6A9.2,9.2,0,0,1,228.4,132.6Zm-.2-5.7-2.6.6-2.3.6-1.2.6a1.9,1.9,0,0,0,.1,2.9,2.1,2.1,0,0,0,1.8.7,5.4,5.4,0,0,0,2.2-.5,3.8,3.8,0,0,0,1.4-1.4,5.6,5.6,0,0,0,.6-3Z"/></g></g></svg>