<svg xmlns="http://www.w3.org/2000/svg" width="234.1" height="135.3" viewBox="0 0 234.1 135.3"><defs><style>.cls-1{fill:#8ca767;}.cls-2{fill:#fff;}</style></defs><title>Asset 2</title><g id="Layer_2" data-name="Layer 2"><g id="Layer_1-2" data-name="Layer 1"><path class="cls-1" d="M140,31.1,87.7,1.6a12,12,0,0,0-11.6-.2L6.5,38.2A12.1,12.1,0,0,0,.6,52.6L17,105.2a12.3,12.3,0,0,0,9,8.2l92.9,21.2a12.2,12.2,0,0,0,14.8-10L146,43.5a12,12,0,0,0-6-12.4"/><path class="cls-2" d="M93.1,26.4A23.4,23.4,0,0,0,78.4,28c-7.2,3.5-10.9,10.3-11.8,19.5-1,11,1.7,21.1,5.7,30.7,4.9,11.9,11.9,21.4,21.8,27.1,6.1,3.5,12.5,5.1,19,2.3,8.1-3.6,12.2-11.3,14.1-21.3a38.2,38.2,0,0,0,.8-9.4c.3-24.2-15.2-46.9-34.9-50.5"/><path class="cls-1" d="M169.6,128.2a4.1,4.1,0,0,0-1.5-1.4,11.8,11.8,0,0,0-2.9-1.1l-2.4-.6a3.2,3.2,0,0,1-1.3-.7.9.9,0,0,1-.3-1c0-.4.4-.8.9-1.1a4.1,4.1,0,0,1,1.9-.5,2.7,2.7,0,0,1,1.7.4,3.8,3.8,0,0,1,.9.9,4.4,4.4,0,0,0,.8,1,1.2,1.2,0,0,0,1,.4,2.2,2.2,0,0,0,1.4-.5,1.4,1.4,0,0,0,.7-1.1,1.7,1.7,0,0,0-.2-1.2,2.5,2.5,0,0,0-1.1-1.2,4.2,4.2,0,0,0-1.9-.9,11.4,11.4,0,0,0-2.8-.3,9.5,9.5,0,0,0-3.5.6,6.9,6.9,0,0,0-2.5,1.7,4.7,4.7,0,0,0-1.2,2.3,2.8,2.8,0,0,0,.4,2.2,3.7,3.7,0,0,0,1.8,1.4,14.8,14.8,0,0,0,3.2,1.1,9.6,9.6,0,0,1,2.5.9,1.2,1.2,0,0,1,.5,1.5c0,.5-.4.9-1,1.2a3.6,3.6,0,0,1-2.1.5,3.9,3.9,0,0,1-2.3-.5,3.1,3.1,0,0,1-1.2-1.5,1.9,1.9,0,0,0-.5-.9c-.1-.2-.5-.3-.9-.3a2.1,2.1,0,0,0-1.3.5,1.6,1.6,0,0,0-.7,1.1,2.7,2.7,0,0,0,.4,1.9,3.7,3.7,0,0,0,2,1.6,8,8,0,0,0,3.6.7,12.7,12.7,0,0,0,4.1-.6,6.4,6.4,0,0,0,2.7-1.8,5.4,5.4,0,0,0,1.4-2.7A3.3,3.3,0,0,0,169.6,128.2Z"/><path class="cls-1" d="M183.2,131a4.3,4.3,0,0,1-3.2,1.4,3.2,3.2,0,0,1-2-.6,3.5,3.5,0,0,1-1-1.8,6.1,6.1,0,0,1,0-2.7,10.8,10.8,0,0,1,1-2.7,5.2,5.2,0,0,1,1.8-1.8,4.3,4.3,0,0,1,2.2-.6,3.1,3.1,0,0,1,2.7,1.4,4.9,4.9,0,0,1,.4,3.7A6.9,6.9,0,0,1,183.2,131Zm6-6.9a5.6,5.6,0,0,0-1.1-2.6,6.3,6.3,0,0,0-2.3-1.6,7.9,7.9,0,0,0-3.2-.6,9.9,9.9,0,0,0-3.5.6,10.2,10.2,0,0,0-2.9,1.6,12.7,12.7,0,0,0-2.1,2.5,11.8,11.8,0,0,0-1.2,3.3,8.6,8.6,0,0,0,0,3.2,4.7,4.7,0,0,0,1.1,2.6,6,6,0,0,0,2.2,1.6,8.4,8.4,0,0,0,3.3.6,9.3,9.3,0,0,0,3.4-.6,9,9,0,0,0,2.9-1.6,9.2,9.2,0,0,0,2.2-2.6,13.3,13.3,0,0,0,1.2-3.2A8.6,8.6,0,0,0,189.2,124.1Z"/><path class="cls-1" d="M207,124.1a5.8,5.8,0,0,1,1.4-1.3,3.2,3.2,0,0,1,1.6-.4,1.8,1.8,0,0,1,1.4.5,1.9,1.9,0,0,1,.3,1.3,19.1,19.1,0,0,1-.2,2l-1.3,6.6a2.4,2.4,0,0,0,.2,1.9,1.7,1.7,0,0,0,1.4.6,2.7,2.7,0,0,0,1.7-.6,4.2,4.2,0,0,0,.9-1.9l1.5-7.6a7.9,7.9,0,0,0,.1-3.4,2.8,2.8,0,0,0-1.4-1.8,6.1,6.1,0,0,0-2.8-.6,5.9,5.9,0,0,0-2.7.5,10.2,10.2,0,0,0-2.6,1.8,3.4,3.4,0,0,0-1.5-1.8,5.8,5.8,0,0,0-2.5-.5,6.6,6.6,0,0,0-2.8.5,10.2,10.2,0,0,0-2.6,1.8v-.3a1.7,1.7,0,0,0-.3-1.5,1.5,1.5,0,0,0-1.3-.6,2,2,0,0,0-1.5.6,3.4,3.4,0,0,0-.9,1.7l-2.1,11.2a2.4,2.4,0,0,0,.2,1.9,1.7,1.7,0,0,0,1.4.6,2.3,2.3,0,0,0,1.6-.6,3.9,3.9,0,0,0,1-1.9l1-5.3a10.4,10.4,0,0,1,1.4-3.8,3.1,3.1,0,0,1,2.9-1.3,1.6,1.6,0,0,1,1.3.5,1.7,1.7,0,0,1,.3,1.4,13.1,13.1,0,0,1-.3,2.3l-1.2,6.2a2.3,2.3,0,0,0,.2,1.9,1.6,1.6,0,0,0,1.4.6,2.5,2.5,0,0,0,1.6-.6,3.5,3.5,0,0,0,1-1.9l1-5.2A10.2,10.2,0,0,1,207,124.1Z"/><path class="cls-1" d="M229.3,128a6.1,6.1,0,0,1-1.1,2.9,4.5,4.5,0,0,1-1.7,1.3,6.9,6.9,0,0,1-2.4.5,2.4,2.4,0,0,1-1.7-.6,1.6,1.6,0,0,1-.4-1.5,2.2,2.2,0,0,1,.9-1.4,3.8,3.8,0,0,1,1.3-.6l2.5-.5,2.8-.7Zm.3,6.7a1.4,1.4,0,0,0,1.1.6,3,3,0,0,0,1.5-.5,2.1,2.1,0,0,0,.8-1.1,11.4,11.4,0,0,0-.1-1.5,6.5,6.5,0,0,1,.1-2.4c.1-.7.3-1.5.4-2.1s.3-1.4.5-2.3a8.6,8.6,0,0,0,0-3.6,3.3,3.3,0,0,0-1.8-1.9,10.7,10.7,0,0,0-4.1-.6,12.2,12.2,0,0,0-4.1.6,8.3,8.3,0,0,0-2.7,1.6,3.8,3.8,0,0,0-1.2,2.1.9.9,0,0,0,.3,1,1.4,1.4,0,0,0,1.1.5,1.6,1.6,0,0,0,1.1-.3l1-1.1a3.3,3.3,0,0,1,1.5-1.2,5.5,5.5,0,0,1,2.5-.5c1.2,0,1.9.3,2.2.8a3,3,0,0,1,.2,2.2l-2.5.7-2.7.5-2,.4a7.3,7.3,0,0,0-3.2,1.5,4.7,4.7,0,0,0-1.6,2.8,3.4,3.4,0,0,0,1.7,3.8,5.3,5.3,0,0,0,2.6.6,8.3,8.3,0,0,0,3.2-.6,13.6,13.6,0,0,0,3.2-1.6A7.4,7.4,0,0,0,229.6,134.7Z"/></g></g></svg>